# xmcd CD database file
#
# Track frame offsets:
#	150
#	25456
#	50260
#	63876
#	90438
#	113495
#	127483
#	155819
#	174058
#	193890
#	210182
#	228711
#	241617
#	259950
#	268904
#
# Disc length: 3823 seconds
#
# Revision: 0
# Processed by: cddbd v1.5.2PL0 Copyright (c) Steve Scherf et al.
# Submitted via: CDex 1.51
#
DISCID=ce0eed0f
DTITLE=Stacey Kent - The Changing Lights
DYEAR=2013
DGENRE=Jazz
TTITLE0=This Happy Madness
TTITLE1=The Summer We Crossed Europe in the Rain
TTITLE2=One Note Samba
TTITLE3=Mais uma vez
TTITLE4=Waiter,, Oh Waiter
TTITLE5=O barquinho
TTITLE6=The Changing Lights
TTITLE7=How Insensitive
TTITLE8=O bebado e a equilibrista
TTITLE9=Like A Lover
TTITLE10=The Face I Love
TTITLE11=A tarde
TTITLE12=Chanson légère
TTITLE13=Le Premier Bonheur du jour
TTITLE14=Meditation
EXTD=YEAR: 2013
EXTT0=
EXTT1=
EXTT2=
EXTT3=
EXTT4=
EXTT5=
EXTT6=
EXTT7=
EXTT8=
EXTT9=
EXTT10=
EXTT11=
EXTT12=
EXTT13=
EXTT14=
PLAYORDER=
